<mxfile host="app.diagrams.net" agent="Mozilla/5.0 (Windows NT 10.0; Win64; x64) AppleWebKit/537.36 (KHTML, like Gecko) Chrome/133.0.0.0 Safari/537.36" version="26.0.13">
  <diagram name="Página-1" id="b847W-5tvrh3X1yDt84t">
    <mxGraphModel dx="1062" dy="593" grid="1" gridSize="10" guides="1" tooltips="1" connect="1" arrows="1" fold="1" page="1" pageScale="1" pageWidth="827" pageHeight="1169" math="0" shadow="0">
      <root>
        <mxCell id="0" />
        <mxCell id="1" parent="0" />
        <mxCell id="4T6y4hf4_FJWY1hy_19Q-1" value="Usuario" style="rounded=0;whiteSpace=wrap;html=1;" vertex="1" parent="1">
          <mxGeometry x="80" y="40" width="120" height="40" as="geometry" />
        </mxCell>
        <mxCell id="4T6y4hf4_FJWY1hy_19Q-2" value="App" style="rounded=0;whiteSpace=wrap;html=1;" vertex="1" parent="1">
          <mxGeometry x="280" y="40" width="120" height="40" as="geometry" />
        </mxCell>
        <mxCell id="4T6y4hf4_FJWY1hy_19Q-3" value="Api" style="rounded=0;whiteSpace=wrap;html=1;" vertex="1" parent="1">
          <mxGeometry x="480" y="40" width="120" height="40" as="geometry" />
        </mxCell>
        <mxCell id="4T6y4hf4_FJWY1hy_19Q-4" value="Base de datos" style="rounded=0;whiteSpace=wrap;html=1;" vertex="1" parent="1">
          <mxGeometry x="680" y="40" width="120" height="40" as="geometry" />
        </mxCell>
        <mxCell id="4T6y4hf4_FJWY1hy_19Q-5" value="" style="endArrow=none;html=1;rounded=0;entryX=0.5;entryY=1;entryDx=0;entryDy=0;" edge="1" parent="1" target="4T6y4hf4_FJWY1hy_19Q-1">
          <mxGeometry width="50" height="50" relative="1" as="geometry">
            <mxPoint x="140" y="1440" as="sourcePoint" />
            <mxPoint x="210" y="270" as="targetPoint" />
          </mxGeometry>
        </mxCell>
        <mxCell id="4T6y4hf4_FJWY1hy_19Q-6" value="" style="endArrow=none;html=1;rounded=0;entryX=0.5;entryY=1;entryDx=0;entryDy=0;" edge="1" parent="1">
          <mxGeometry width="50" height="50" relative="1" as="geometry">
            <mxPoint x="339" y="1440" as="sourcePoint" />
            <mxPoint x="339.33000000000004" y="80" as="targetPoint" />
          </mxGeometry>
        </mxCell>
        <mxCell id="4T6y4hf4_FJWY1hy_19Q-7" value="" style="endArrow=none;html=1;rounded=0;entryX=0.5;entryY=1;entryDx=0;entryDy=0;" edge="1" parent="1">
          <mxGeometry width="50" height="50" relative="1" as="geometry">
            <mxPoint x="540" y="1440" as="sourcePoint" />
            <mxPoint x="539.33" y="80" as="targetPoint" />
          </mxGeometry>
        </mxCell>
        <mxCell id="4T6y4hf4_FJWY1hy_19Q-8" value="" style="endArrow=none;html=1;rounded=0;entryX=0.5;entryY=1;entryDx=0;entryDy=0;" edge="1" parent="1">
          <mxGeometry width="50" height="50" relative="1" as="geometry">
            <mxPoint x="739" y="1440" as="sourcePoint" />
            <mxPoint x="739.33" y="80" as="targetPoint" />
          </mxGeometry>
        </mxCell>
        <mxCell id="4T6y4hf4_FJWY1hy_19Q-9" value="Navega por la aplicación&amp;nbsp;" style="text;html=1;align=center;verticalAlign=middle;resizable=0;points=[];autosize=1;strokeColor=none;fillColor=none;" vertex="1" parent="1">
          <mxGeometry x="150" y="128" width="160" height="30" as="geometry" />
        </mxCell>
        <mxCell id="4T6y4hf4_FJWY1hy_19Q-10" value="" style="endArrow=classic;html=1;rounded=0;" edge="1" parent="1">
          <mxGeometry width="50" height="50" relative="1" as="geometry">
            <mxPoint x="140" y="160" as="sourcePoint" />
            <mxPoint x="340" y="160" as="targetPoint" />
          </mxGeometry>
        </mxCell>
        <mxCell id="4T6y4hf4_FJWY1hy_19Q-11" value="" style="endArrow=classic;html=1;rounded=0;" edge="1" parent="1">
          <mxGeometry width="50" height="50" relative="1" as="geometry">
            <mxPoint x="140" y="210" as="sourcePoint" />
            <mxPoint x="340" y="210" as="targetPoint" />
          </mxGeometry>
        </mxCell>
        <mxCell id="4T6y4hf4_FJWY1hy_19Q-12" value="Cobro de citas" style="text;html=1;align=center;verticalAlign=middle;resizable=0;points=[];autosize=1;strokeColor=none;fillColor=none;" vertex="1" parent="1">
          <mxGeometry x="170" y="178" width="100" height="30" as="geometry" />
        </mxCell>
        <mxCell id="4T6y4hf4_FJWY1hy_19Q-13" value="" style="endArrow=classic;html=1;rounded=0;edgeStyle=orthogonalEdgeStyle;curved=1;" edge="1" parent="1">
          <mxGeometry width="50" height="50" relative="1" as="geometry">
            <mxPoint x="340" y="230" as="sourcePoint" />
            <mxPoint x="340" y="250" as="targetPoint" />
            <Array as="points">
              <mxPoint x="370" y="230" />
              <mxPoint x="370" y="250" />
            </Array>
          </mxGeometry>
        </mxCell>
        <mxCell id="4T6y4hf4_FJWY1hy_19Q-14" value="" style="endArrow=none;html=1;rounded=0;startFill=1;startArrow=classic;" edge="1" parent="1">
          <mxGeometry width="50" height="50" relative="1" as="geometry">
            <mxPoint x="140" y="270" as="sourcePoint" />
            <mxPoint x="340" y="270" as="targetPoint" />
          </mxGeometry>
        </mxCell>
        <mxCell id="4T6y4hf4_FJWY1hy_19Q-15" value="Ve citas" style="text;html=1;align=center;verticalAlign=middle;resizable=0;points=[];autosize=1;strokeColor=none;fillColor=none;" vertex="1" parent="1">
          <mxGeometry x="200" y="240" width="70" height="30" as="geometry" />
        </mxCell>
        <mxCell id="4T6y4hf4_FJWY1hy_19Q-16" value="" style="endArrow=classic;html=1;rounded=0;" edge="1" parent="1">
          <mxGeometry width="50" height="50" relative="1" as="geometry">
            <mxPoint x="140" y="320" as="sourcePoint" />
            <mxPoint x="340" y="320" as="targetPoint" />
          </mxGeometry>
        </mxCell>
        <mxCell id="4T6y4hf4_FJWY1hy_19Q-18" value="Selecciona citas" style="text;html=1;align=center;verticalAlign=middle;resizable=0;points=[];autosize=1;strokeColor=none;fillColor=none;" vertex="1" parent="1">
          <mxGeometry x="180" y="290" width="110" height="30" as="geometry" />
        </mxCell>
        <mxCell id="4T6y4hf4_FJWY1hy_19Q-19" value="" style="endArrow=classic;html=1;rounded=0;" edge="1" parent="1">
          <mxGeometry width="50" height="50" relative="1" as="geometry">
            <mxPoint x="340" y="340" as="sourcePoint" />
            <mxPoint x="540" y="340" as="targetPoint" />
          </mxGeometry>
        </mxCell>
        <mxCell id="4T6y4hf4_FJWY1hy_19Q-20" value="Post de la cita" style="text;html=1;align=center;verticalAlign=middle;resizable=0;points=[];autosize=1;strokeColor=none;fillColor=none;" vertex="1" parent="1">
          <mxGeometry x="400" y="308" width="100" height="30" as="geometry" />
        </mxCell>
        <mxCell id="4T6y4hf4_FJWY1hy_19Q-21" value="" style="endArrow=classic;html=1;rounded=0;" edge="1" parent="1">
          <mxGeometry width="50" height="50" relative="1" as="geometry">
            <mxPoint x="540" y="360" as="sourcePoint" />
            <mxPoint x="740" y="360" as="targetPoint" />
          </mxGeometry>
        </mxCell>
        <mxCell id="4T6y4hf4_FJWY1hy_19Q-22" value="Post de la cita" style="text;html=1;align=center;verticalAlign=middle;resizable=0;points=[];autosize=1;strokeColor=none;fillColor=none;" vertex="1" parent="1">
          <mxGeometry x="580" y="328" width="100" height="30" as="geometry" />
        </mxCell>
        <mxCell id="4T6y4hf4_FJWY1hy_19Q-23" value="" style="endArrow=none;html=1;rounded=0;startFill=1;startArrow=classic;" edge="1" parent="1">
          <mxGeometry width="50" height="50" relative="1" as="geometry">
            <mxPoint x="540" y="400" as="sourcePoint" />
            <mxPoint x="740" y="400" as="targetPoint" />
          </mxGeometry>
        </mxCell>
        <mxCell id="4T6y4hf4_FJWY1hy_19Q-24" value="Error 404" style="text;html=1;align=center;verticalAlign=middle;resizable=0;points=[];autosize=1;strokeColor=none;fillColor=none;" vertex="1" parent="1">
          <mxGeometry x="610" y="370" width="70" height="30" as="geometry" />
        </mxCell>
        <mxCell id="4T6y4hf4_FJWY1hy_19Q-28" value="" style="endArrow=none;html=1;rounded=0;startFill=1;startArrow=classic;" edge="1" parent="1">
          <mxGeometry width="50" height="50" relative="1" as="geometry">
            <mxPoint x="540" y="440" as="sourcePoint" />
            <mxPoint x="740" y="440" as="targetPoint" />
          </mxGeometry>
        </mxCell>
        <mxCell id="4T6y4hf4_FJWY1hy_19Q-29" value="Post de la cita" style="text;html=1;align=center;verticalAlign=middle;resizable=0;points=[];autosize=1;strokeColor=none;fillColor=none;" vertex="1" parent="1">
          <mxGeometry x="595" y="408" width="100" height="30" as="geometry" />
        </mxCell>
        <mxCell id="4T6y4hf4_FJWY1hy_19Q-30" value="" style="endArrow=none;html=1;rounded=0;startFill=1;startArrow=classic;" edge="1" parent="1">
          <mxGeometry width="50" height="50" relative="1" as="geometry">
            <mxPoint x="340" y="450" as="sourcePoint" />
            <mxPoint x="540" y="450" as="targetPoint" />
          </mxGeometry>
        </mxCell>
        <mxCell id="4T6y4hf4_FJWY1hy_19Q-31" value="Post de cita" style="text;html=1;align=center;verticalAlign=middle;resizable=0;points=[];autosize=1;strokeColor=none;fillColor=none;" vertex="1" parent="1">
          <mxGeometry x="390" y="420" width="90" height="30" as="geometry" />
        </mxCell>
        <mxCell id="4T6y4hf4_FJWY1hy_19Q-32" value="" style="endArrow=none;html=1;rounded=0;startFill=1;startArrow=classic;" edge="1" parent="1">
          <mxGeometry width="50" height="50" relative="1" as="geometry">
            <mxPoint x="140" y="470" as="sourcePoint" />
            <mxPoint x="340" y="470" as="targetPoint" />
          </mxGeometry>
        </mxCell>
        <mxCell id="4T6y4hf4_FJWY1hy_19Q-33" value="Ve cita del día" style="text;html=1;align=center;verticalAlign=middle;resizable=0;points=[];autosize=1;strokeColor=none;fillColor=none;" vertex="1" parent="1">
          <mxGeometry x="190" y="438" width="100" height="30" as="geometry" />
        </mxCell>
        <mxCell id="4T6y4hf4_FJWY1hy_19Q-34" value="" style="endArrow=classic;html=1;rounded=0;" edge="1" parent="1">
          <mxGeometry width="50" height="50" relative="1" as="geometry">
            <mxPoint x="140" y="520" as="sourcePoint" />
            <mxPoint x="340" y="520" as="targetPoint" />
          </mxGeometry>
        </mxCell>
        <mxCell id="4T6y4hf4_FJWY1hy_19Q-36" value="Selecciona cobrar cita" style="text;html=1;align=center;verticalAlign=middle;resizable=0;points=[];autosize=1;strokeColor=none;fillColor=none;" vertex="1" parent="1">
          <mxGeometry x="180" y="488" width="140" height="30" as="geometry" />
        </mxCell>
        <mxCell id="4T6y4hf4_FJWY1hy_19Q-41" value="" style="endArrow=classic;html=1;rounded=0;" edge="1" parent="1">
          <mxGeometry width="50" height="50" relative="1" as="geometry">
            <mxPoint x="340" y="540" as="sourcePoint" />
            <mxPoint x="540" y="540" as="targetPoint" />
          </mxGeometry>
        </mxCell>
        <mxCell id="4T6y4hf4_FJWY1hy_19Q-42" value="Post de tipo de cita" style="text;html=1;align=center;verticalAlign=middle;resizable=0;points=[];autosize=1;strokeColor=none;fillColor=none;" vertex="1" parent="1">
          <mxGeometry x="375" y="508" width="130" height="30" as="geometry" />
        </mxCell>
        <mxCell id="4T6y4hf4_FJWY1hy_19Q-43" value="" style="endArrow=classic;html=1;rounded=0;" edge="1" parent="1">
          <mxGeometry width="50" height="50" relative="1" as="geometry">
            <mxPoint x="540" y="560" as="sourcePoint" />
            <mxPoint x="740" y="560" as="targetPoint" />
          </mxGeometry>
        </mxCell>
        <mxCell id="4T6y4hf4_FJWY1hy_19Q-44" value="Post de tipo de cita" style="text;html=1;align=center;verticalAlign=middle;resizable=0;points=[];autosize=1;strokeColor=none;fillColor=none;" vertex="1" parent="1">
          <mxGeometry x="580" y="530" width="130" height="30" as="geometry" />
        </mxCell>
        <mxCell id="4T6y4hf4_FJWY1hy_19Q-45" value="" style="endArrow=none;html=1;rounded=0;startFill=1;startArrow=classic;" edge="1" parent="1">
          <mxGeometry width="50" height="50" relative="1" as="geometry">
            <mxPoint x="540" y="600" as="sourcePoint" />
            <mxPoint x="740" y="600" as="targetPoint" />
          </mxGeometry>
        </mxCell>
        <mxCell id="4T6y4hf4_FJWY1hy_19Q-46" value="Tipo de cita" style="text;html=1;align=center;verticalAlign=middle;resizable=0;points=[];autosize=1;strokeColor=none;fillColor=none;" vertex="1" parent="1">
          <mxGeometry x="595" y="570" width="90" height="30" as="geometry" />
        </mxCell>
        <mxCell id="4T6y4hf4_FJWY1hy_19Q-47" value="" style="endArrow=none;html=1;rounded=0;startFill=1;startArrow=classic;" edge="1" parent="1">
          <mxGeometry width="50" height="50" relative="1" as="geometry">
            <mxPoint x="340" y="620" as="sourcePoint" />
            <mxPoint x="540" y="620" as="targetPoint" />
          </mxGeometry>
        </mxCell>
        <mxCell id="4T6y4hf4_FJWY1hy_19Q-48" value="Cobra la retención" style="text;html=1;align=center;verticalAlign=middle;resizable=0;points=[];autosize=1;strokeColor=none;fillColor=none;" vertex="1" parent="1">
          <mxGeometry x="370" y="588" width="120" height="30" as="geometry" />
        </mxCell>
        <mxCell id="4T6y4hf4_FJWY1hy_19Q-49" value="" style="endArrow=none;html=1;rounded=0;startFill=1;startArrow=classic;" edge="1" parent="1">
          <mxGeometry width="50" height="50" relative="1" as="geometry">
            <mxPoint x="140" y="640" as="sourcePoint" />
            <mxPoint x="340" y="640" as="targetPoint" />
          </mxGeometry>
        </mxCell>
        <mxCell id="4T6y4hf4_FJWY1hy_19Q-50" value="Cobro de cita con éxito" style="text;html=1;align=center;verticalAlign=middle;resizable=0;points=[];autosize=1;strokeColor=none;fillColor=none;" vertex="1" parent="1">
          <mxGeometry x="165" y="610" width="150" height="30" as="geometry" />
        </mxCell>
        <mxCell id="4T6y4hf4_FJWY1hy_19Q-51" value="" style="endArrow=classic;html=1;rounded=0;" edge="1" parent="1">
          <mxGeometry width="50" height="50" relative="1" as="geometry">
            <mxPoint x="140" y="700" as="sourcePoint" />
            <mxPoint x="340" y="700" as="targetPoint" />
          </mxGeometry>
        </mxCell>
        <mxCell id="4T6y4hf4_FJWY1hy_19Q-52" value="Apartado de garantía" style="text;html=1;align=center;verticalAlign=middle;resizable=0;points=[];autosize=1;strokeColor=none;fillColor=none;" vertex="1" parent="1">
          <mxGeometry x="160" y="670" width="140" height="30" as="geometry" />
        </mxCell>
        <mxCell id="4T6y4hf4_FJWY1hy_19Q-55" value="" style="endArrow=classic;html=1;rounded=0;edgeStyle=orthogonalEdgeStyle;curved=1;" edge="1" parent="1">
          <mxGeometry width="50" height="50" relative="1" as="geometry">
            <mxPoint x="345" y="700" as="sourcePoint" />
            <mxPoint x="345" y="720" as="targetPoint" />
            <Array as="points">
              <mxPoint x="375" y="700" />
              <mxPoint x="375" y="720" />
            </Array>
          </mxGeometry>
        </mxCell>
        <mxCell id="4T6y4hf4_FJWY1hy_19Q-56" value="" style="endArrow=none;html=1;rounded=0;startFill=1;startArrow=classic;" edge="1" parent="1">
          <mxGeometry width="50" height="50" relative="1" as="geometry">
            <mxPoint x="140" y="750" as="sourcePoint" />
            <mxPoint x="340" y="750" as="targetPoint" />
          </mxGeometry>
        </mxCell>
        <mxCell id="4T6y4hf4_FJWY1hy_19Q-57" value="Formulario de garantía&amp;nbsp;" style="text;html=1;align=center;verticalAlign=middle;resizable=0;points=[];autosize=1;strokeColor=none;fillColor=none;" vertex="1" parent="1">
          <mxGeometry x="175" y="718" width="150" height="30" as="geometry" />
        </mxCell>
        <mxCell id="4T6y4hf4_FJWY1hy_19Q-58" value="" style="endArrow=classic;html=1;rounded=0;" edge="1" parent="1">
          <mxGeometry width="50" height="50" relative="1" as="geometry">
            <mxPoint x="140" y="800" as="sourcePoint" />
            <mxPoint x="340" y="800" as="targetPoint" />
          </mxGeometry>
        </mxCell>
        <mxCell id="4T6y4hf4_FJWY1hy_19Q-59" value="Rellena los campos" style="text;html=1;align=center;verticalAlign=middle;resizable=0;points=[];autosize=1;strokeColor=none;fillColor=none;" vertex="1" parent="1">
          <mxGeometry x="175" y="768" width="130" height="30" as="geometry" />
        </mxCell>
        <mxCell id="4T6y4hf4_FJWY1hy_19Q-63" value="" style="endArrow=classic;html=1;rounded=0;edgeStyle=orthogonalEdgeStyle;curved=1;" edge="1" parent="1">
          <mxGeometry width="50" height="50" relative="1" as="geometry">
            <mxPoint x="345" y="810" as="sourcePoint" />
            <mxPoint x="345" y="830" as="targetPoint" />
            <Array as="points">
              <mxPoint x="375" y="810" />
              <mxPoint x="375" y="830" />
            </Array>
          </mxGeometry>
        </mxCell>
        <mxCell id="4T6y4hf4_FJWY1hy_19Q-64" value="" style="endArrow=classic;html=1;rounded=0;" edge="1" parent="1">
          <mxGeometry width="50" height="50" relative="1" as="geometry">
            <mxPoint x="140" y="850" as="sourcePoint" />
            <mxPoint x="340" y="850" as="targetPoint" />
          </mxGeometry>
        </mxCell>
        <mxCell id="4T6y4hf4_FJWY1hy_19Q-65" value="Cobra garantía" style="text;html=1;align=center;verticalAlign=middle;resizable=0;points=[];autosize=1;strokeColor=none;fillColor=none;" vertex="1" parent="1">
          <mxGeometry x="190" y="820" width="100" height="30" as="geometry" />
        </mxCell>
        <mxCell id="4T6y4hf4_FJWY1hy_19Q-66" value="" style="endArrow=classic;html=1;rounded=0;" edge="1" parent="1">
          <mxGeometry width="50" height="50" relative="1" as="geometry">
            <mxPoint x="340" y="880" as="sourcePoint" />
            <mxPoint x="540" y="880" as="targetPoint" />
          </mxGeometry>
        </mxCell>
        <mxCell id="4T6y4hf4_FJWY1hy_19Q-67" value="Framework de retención&lt;div&gt;&amp;nbsp;del dinero&lt;/div&gt;" style="text;html=1;align=center;verticalAlign=middle;resizable=0;points=[];autosize=1;strokeColor=none;fillColor=none;" vertex="1" parent="1">
          <mxGeometry x="365" y="843" width="150" height="40" as="geometry" />
        </mxCell>
        <mxCell id="4T6y4hf4_FJWY1hy_19Q-68" value="" style="endArrow=none;html=1;rounded=0;startFill=1;startArrow=classic;" edge="1" parent="1">
          <mxGeometry width="50" height="50" relative="1" as="geometry">
            <mxPoint x="340" y="920" as="sourcePoint" />
            <mxPoint x="540" y="920" as="targetPoint" />
          </mxGeometry>
        </mxCell>
        <mxCell id="4T6y4hf4_FJWY1hy_19Q-69" value="Método de pago" style="text;html=1;align=center;verticalAlign=middle;resizable=0;points=[];autosize=1;strokeColor=none;fillColor=none;" vertex="1" parent="1">
          <mxGeometry x="380" y="890" width="110" height="30" as="geometry" />
        </mxCell>
        <mxCell id="4T6y4hf4_FJWY1hy_19Q-70" value="" style="endArrow=none;html=1;rounded=0;startFill=1;startArrow=classic;" edge="1" parent="1">
          <mxGeometry width="50" height="50" relative="1" as="geometry">
            <mxPoint x="140" y="940" as="sourcePoint" />
            <mxPoint x="340" y="940" as="targetPoint" />
          </mxGeometry>
        </mxCell>
        <mxCell id="4T6y4hf4_FJWY1hy_19Q-71" value="Formulario del pago" style="text;html=1;align=center;verticalAlign=middle;resizable=0;points=[];autosize=1;strokeColor=none;fillColor=none;" vertex="1" parent="1">
          <mxGeometry x="145" y="908" width="130" height="30" as="geometry" />
        </mxCell>
        <mxCell id="4T6y4hf4_FJWY1hy_19Q-72" value="" style="endArrow=classic;html=1;rounded=0;" edge="1" parent="1">
          <mxGeometry width="50" height="50" relative="1" as="geometry">
            <mxPoint x="140" y="980" as="sourcePoint" />
            <mxPoint x="340" y="980" as="targetPoint" />
          </mxGeometry>
        </mxCell>
        <mxCell id="4T6y4hf4_FJWY1hy_19Q-73" value="Cobra" style="text;html=1;align=center;verticalAlign=middle;resizable=0;points=[];autosize=1;strokeColor=none;fillColor=none;" vertex="1" parent="1">
          <mxGeometry x="200" y="950" width="60" height="30" as="geometry" />
        </mxCell>
        <mxCell id="4T6y4hf4_FJWY1hy_19Q-74" value="" style="endArrow=classic;html=1;rounded=0;" edge="1" parent="1">
          <mxGeometry width="50" height="50" relative="1" as="geometry">
            <mxPoint x="340" y="1010" as="sourcePoint" />
            <mxPoint x="540" y="1010" as="targetPoint" />
          </mxGeometry>
        </mxCell>
        <mxCell id="4T6y4hf4_FJWY1hy_19Q-75" value="Post de pago" style="text;html=1;align=center;verticalAlign=middle;resizable=0;points=[];autosize=1;strokeColor=none;fillColor=none;" vertex="1" parent="1">
          <mxGeometry x="390" y="980" width="90" height="30" as="geometry" />
        </mxCell>
        <mxCell id="4T6y4hf4_FJWY1hy_19Q-77" value="" style="endArrow=none;html=1;rounded=0;startFill=1;startArrow=classic;" edge="1" parent="1">
          <mxGeometry width="50" height="50" relative="1" as="geometry">
            <mxPoint x="340" y="1050" as="sourcePoint" />
            <mxPoint x="540" y="1050" as="targetPoint" />
          </mxGeometry>
        </mxCell>
        <mxCell id="4T6y4hf4_FJWY1hy_19Q-78" value="Post de validación" style="text;html=1;align=center;verticalAlign=middle;resizable=0;points=[];autosize=1;strokeColor=none;fillColor=none;" vertex="1" parent="1">
          <mxGeometry x="380" y="1018" width="120" height="30" as="geometry" />
        </mxCell>
        <mxCell id="4T6y4hf4_FJWY1hy_19Q-80" value="" style="endArrow=classic;html=1;rounded=0;" edge="1" parent="1">
          <mxGeometry width="50" height="50" relative="1" as="geometry">
            <mxPoint x="340" y="1090" as="sourcePoint" />
            <mxPoint x="540" y="1090" as="targetPoint" />
          </mxGeometry>
        </mxCell>
        <mxCell id="4T6y4hf4_FJWY1hy_19Q-81" value="Post de confirmación" style="text;html=1;align=center;verticalAlign=middle;resizable=0;points=[];autosize=1;strokeColor=none;fillColor=none;" vertex="1" parent="1">
          <mxGeometry x="360" y="1058" width="140" height="30" as="geometry" />
        </mxCell>
        <mxCell id="4T6y4hf4_FJWY1hy_19Q-82" value="" style="endArrow=classic;html=1;rounded=0;" edge="1" parent="1">
          <mxGeometry width="50" height="50" relative="1" as="geometry">
            <mxPoint x="540" y="1110" as="sourcePoint" />
            <mxPoint x="740" y="1110" as="targetPoint" />
          </mxGeometry>
        </mxCell>
        <mxCell id="4T6y4hf4_FJWY1hy_19Q-83" value="Post de validación&amp;nbsp;&amp;nbsp;" style="text;html=1;align=center;verticalAlign=middle;resizable=0;points=[];autosize=1;strokeColor=none;fillColor=none;" vertex="1" parent="1">
          <mxGeometry x="565" y="1078" width="130" height="30" as="geometry" />
        </mxCell>
        <mxCell id="4T6y4hf4_FJWY1hy_19Q-84" value="" style="endArrow=none;html=1;rounded=0;startFill=1;startArrow=classic;" edge="1" parent="1">
          <mxGeometry width="50" height="50" relative="1" as="geometry">
            <mxPoint x="540" y="1150" as="sourcePoint" />
            <mxPoint x="740" y="1150" as="targetPoint" />
          </mxGeometry>
        </mxCell>
        <mxCell id="4T6y4hf4_FJWY1hy_19Q-85" value="Post de actualizacion" style="text;html=1;align=center;verticalAlign=middle;resizable=0;points=[];autosize=1;strokeColor=none;fillColor=none;" vertex="1" parent="1">
          <mxGeometry x="575" y="1118" width="140" height="30" as="geometry" />
        </mxCell>
        <mxCell id="4T6y4hf4_FJWY1hy_19Q-86" value="" style="endArrow=none;html=1;rounded=0;startFill=1;startArrow=classic;" edge="1" parent="1">
          <mxGeometry width="50" height="50" relative="1" as="geometry">
            <mxPoint x="340" y="1210" as="sourcePoint" />
            <mxPoint x="540" y="1210" as="targetPoint" />
          </mxGeometry>
        </mxCell>
        <mxCell id="4T6y4hf4_FJWY1hy_19Q-87" value="Post de confirmación de pago" style="text;html=1;align=center;verticalAlign=middle;resizable=0;points=[];autosize=1;strokeColor=none;fillColor=none;" vertex="1" parent="1">
          <mxGeometry x="350" y="1178" width="180" height="30" as="geometry" />
        </mxCell>
        <mxCell id="4T6y4hf4_FJWY1hy_19Q-88" value="" style="endArrow=none;html=1;rounded=0;startFill=1;startArrow=classic;" edge="1" parent="1">
          <mxGeometry width="50" height="50" relative="1" as="geometry">
            <mxPoint x="140" y="1240" as="sourcePoint" />
            <mxPoint x="340" y="1240" as="targetPoint" />
          </mxGeometry>
        </mxCell>
        <mxCell id="4T6y4hf4_FJWY1hy_19Q-89" value="Retención con éxito&amp;nbsp;" style="text;html=1;align=center;verticalAlign=middle;resizable=0;points=[];autosize=1;strokeColor=none;fillColor=none;" vertex="1" parent="1">
          <mxGeometry x="175" y="1208" width="130" height="30" as="geometry" />
        </mxCell>
      </root>
    </mxGraphModel>
  </diagram>
</mxfile>
